<svg xmlns="http://www.w3.org/2000/svg" width="49" height="49">
  <g fill="#323232">
    <path d="M24.5 0a24.5 24.5 0 100 49 24.5 24.5 0 000-49zm0 47a22.5 22.5 0 110-45 22.5 22.5 0 010 45z"/>
    <path d="M34.8 26.8c-.4-9.5-9.2-18.7-9.6-19.1a1 1 0 00-.1-.2 1 1 0 00-.2 0l-.1-.1a.9.9 0 00-.3 0h-.1a1 1 0 00-.2 0H24a.9.9 0 00-.2.1 1 1 0 000 .1h-.1c-.4.5-9.2 9.7-9.6 19.2V28c.3 10.3 10 12.9 10 12.9a1 1 0 00.5 0c.1 0 9.8-2.6 10.1-12.8V27v-.2zm-18-3.6c2.2 2.1 5.4 3.6 6.7 4.1V32c-2.4-1.2-6.2-3.3-7.3-5.2a17 17 0 01.6-3.5zm2-5c1.5 1.6 3.6 2.6 4.7 3v4c-1.7-.8-4.4-2.3-6-4a29.2 29.2 0 011.3-3zm12.7 3a19.2 19.2 0 01-6 4v-4c1-.4 3.2-1.4 4.7-3 .5.9 1 1.9 1.3 3zm-6-2.2v-8a45.2 45.2 0 013.7 5.3 9 9 0 01-3.7 2.7zm0 12.9v-4.6c1.4-.5 4.5-2 6.7-4 .3 1 .5 2.2.6 3.4-1 1.8-4.9 4-7.3 5.2zm-2-12.8a9 9 0 01-3.6-2.8 45.4 45.4 0 013.6-5.3v8zm-7.1 10.7c2.3 2 5.7 3.7 7.1 4.3v4.4c-2-.9-6.2-3.3-7.1-8.7zm9.1 8.7v-4.4c1.4-.6 4.8-2.3 7.1-4.3-1 5.4-5 7.8-7.1 8.7z"/>
  </g>
</svg>
