<svg xmlns="http://www.w3.org/2000/svg" viewBox="0 0 32 32" width="32" height="32" opacity=".8" fill="#fff">
  <path d="M21 16a5 5 0 1 1-9.8-1.1h-1v6.8h11.5v-6.8h-1c.2.3.2.7.2 1.1Z"/>
  <path fill-rule="evenodd" clip-rule="evenodd" d="M21.7 10.3h-3v3h3v-3Zm-3 5.7a2.7 2.7 0 1 1-5.4 0 2.7 2.7 0 0 1 5.3 0Z"/>
  <path fill-rule="evenodd" clip-rule="evenodd" d="M0 16a16 16 0 1 1 32 0 16 16 0 0 1-32 0Zm21.7 8c1.2 0 2.3-1 2.3-2.3V10.3C24 9 23 8 21.7 8H10.3C9 8 8 9 8 10.3v11.4C8 23 9 24 10.3 24h11.4Z"/>
</svg>
