<svg fill="none" xmlns="http://www.w3.org/2000/svg" viewBox="0 0 154 64" width="154" height="64">
  <path fill-rule="evenodd" clip-rule="evenodd" d="M59.292 42.755c-.833-.25-2.153.373-2.153.373s-3.027 2.513-17.84-.378c-10.908-2.129-16.583-1.917-16.583-1.917s1.833-12.5 1.333-16c0 0 0-.917-1.083-.917s-1.75.417-1.75 1c0 .083.003.233.008.436.028 1.219.1 4.362-.258 6.647 0 0-1.417 4.251-6.167 3.917-4.75-.334-5.75-3.75-6.167-6.083-.417-2.333-.666-8.833.584-11.5 0 0 7.167.25 11.667-3.583s4.25-7.167 2.083-8.583C20.799 4.751 15.883 5 12.049 8.5c-3.834 3.5-5.083 7-5.083 7s-5.625-1.208-4.333-7.083C3.982 2.277 12.393 3 12.393 3c.31.059.567.113.784.158 1.008.21 1.142.239 1.622-.241.583-.583 1-2.083-1.75-2.167-2.75-.084-11 1.271-12.583 6.75-1.685 5.828 1.435 9.997 5.622 10.643 0 0-2.288 10.107.545 15.107 2.788 4.922 6.811 4.918 8.515 4.917h.08c1.655 0 4.572-.916 5.405-2.25 0 0-.393 3.581-.724 4.88 0 0-6.935-.095-9.109 1.036-3.688 1.917-2.917 6.48-1.5 8.104 1.204 1.38 4.812 2.125 7.417.896 2.705-1.277 4.865-3.739 5.549-7.697 0 0 6.368-.469 12.534 1.364 6.166 1.833 14.756 3.556 17.34 3.556 2.584 0 8.046-.738 8.327-2.889.186-1.438-.342-2.162-1.175-2.412ZM15.862 9.328s3.281-2.5 4.844-.938c0 0 1.25 1.281.094 2.812l-.077.104c-.717.965-2.625 3.535-10.579 4.834-.001.001 2.593-4.562 5.718-6.812ZM11.08 47.359c.516 3.344 5.047.875 5.047.875 3.219-1.828 3.219-5.156 3.219-5.156-4.704-.168-5.782.321-6.579.711-.797.39-2.02 1.412-1.687 3.57Z" fill="#fff"/>
  <path fill-rule="evenodd" clip-rule="evenodd" d="m73.574 31.247.002-6.77c0-1.031 2.906-1.622 2.906-.329 0 2.077.045 4.177.09 6.286.102 4.85.206 9.746-.23 14.505-.26 2.815-.728 7.486-3.83 8.836-2.148.935-4.491-.182-4.724-2.662-.403-4.28.992-7.696 4.195-10.521.308-.272.963-.414 1.547-.415l.004-.504c.009-1.005.018-2.01.022-3.015-1.113.941-2.434 1.433-3.772.928-1.221-.46-1.988-1.417-2.461-2.616-1.547 2.436-4.191 4.906-7.167 3.608-1.777-.775-2.662-2.686-3.018-4.83-.131.263-.364.711-.773 1.481-1.21 2.27-2.413 3.159-3.938 3.159-1.708 0-1.657-2.383-1.657-2.383s-.551 1.453-3.218 1.932c-1.974.355-3.502-1.146-4.213-2.985-1.176 2.103-2.764 3.253-4.14 3.423-2.022.25-3.103-3.125-3.103-3.125a21.271 21.271 0 0 1-.487-1.781c-1.173 3.06-3.158 4.699-4.83 4.906-2.021.25-3.102-3.125-3.102-3.125-1.965-5.999-1.562-14.937.5-23.125 2.062-8.188 5.5-6.813 6.312-6.25.812.563 1.124 3.875-.438 10.625-1.374 5.939-4.245 10.454-4.918 11.514-.092.145-.143.225-.144.236-.156 2.485.156 4.516.75 6.188.678 1.909 2.562.75 4.062-2 .436-.798.846-1.61 1.229-2.434-.572-5.379.042-11.832 1.565-17.879 2.062-8.188 5.5-6.813 6.312-6.25.812.563 1.124 3.875-.438 10.625-1.374 5.939-4.245 10.454-4.918 11.514-.093.145-.144.225-.144.236-.156 2.485.156 4.516.75 6.188.678 1.909 2.562.75 4.062-2 .267-.489.497-.937.71-1.362.168-2.127.897-4.52 3.08-7.054 3.152-3.658 6.708-1.708 7.146-.833.438.875.675 1.632.5 3.646-.183 2.112-.471 4.91-.651 6.661v.003c-.087.839-.148 1.438-.162 1.607-.042.521-.063 1.334 1.062.75.95-.493 2.566-3.194 3.047-4.026-.06-1.812.169-3.607.504-4.886.725-2.774 2.699-6.278 6.163-5.697 3.124.524 1.876 4.876.074 6.232-.95.714-3.395.226-1.824-.956.64-.481.934-2.432.608-3.122-.466-.985-1.45 1.214-1.64 1.64-.026.059-.037.084-.03.063-.662 1.999-1.007 4.155-.816 6.266l.03.334c.134 1.558.343 3.96 1.57 4.934 1.711 1.357 3.135-1.742 3.727-3.029l.106-.229c.174-.371.754-.636 1.34-.737-.321-2.788.214-6.018.548-7.906.23-1.299 3.193-1.676 2.936-.222-.54 3.05-1.204 6.947.187 9.862.026.054.054.119.085.189.208.473.529 1.204.993.796a5.56 5.56 0 0 0 1.18-1.463c.443-.803.826-1.606.86-2.537a.45.45 0 0 1 .014-.078.798.798 0 0 0 .008-.037ZM32.206 9.562c-.625 0-1.266 1.063-1.954 3.719-.688 2.657-1.671 12.031-1.671 12.031 2.107-4.124 3.625-10.469 4.094-12.75.469-2.281.156-3-.47-3Zm6.464 3.719c.688-2.656 1.329-3.719 1.954-3.719s.938.719.469 3c-.47 2.281-1.987 8.626-4.094 12.75 0 0 .984-9.374 1.67-12.031Zm12.81 12.838.049-.411a1.36 1.36 0 0 0-1.001-1.562c-.74-.141-2.041.078-3.312 1.955s-2.813 4.711-1.667 7.919c0 0 .734 2.106 2.438 1.418C49.617 34.78 50.07 34 50.57 32c.43-1.721.776-4.712.91-5.88ZM73.5 43.764c-.037 2.683-.38 5.377-1.578 7.81-.701.146-1.03-.117-1.24-1.237a10.736 10.736 0 0 1 .05-3.251c.24-2.021 1.382-3.736 2.783-5.153l-.006.824c-.002.335-.003.671-.008 1.007Zm13.086-28.115c.904 2.71 3.174 4.771 5.715 6 4.064 1.591 6.914 5.877 5.976 10.359-.971 4.62-4.943 7.508-9.625 7.549-5.053.044-10.055-2.954-10.631-8.295-.36-3.343 1.008-8.131 4.72-8.858 1.765-.347 2.26 1.339.454 1.693-2.293.45-2.586 6.315-2.014 8.003 1.074 3.171 4.263 5.639 7.693 5.609 8.273-.072 8.043-10.788 1.818-14.126-3.881-1.723-9.361-6.471-6.63-11.321 2.395-4.25 8.007-6.22 12.53-4.327 4.23 1.771 5.588 7.815 2.574 11.233-3.371 3.826-7.32-.206-7.898-3.863-.202-1.271 2.707-1.986 2.898-.776.197 1.257.615 2.726 1.566 3.632 1.348 1.28 2.035-1.182 2.096-2.277.17-3.084-1.48-6.528-4.967-6.709-3.347-.173-7.554 2.647-6.275 6.474Z" fill="#fff"/>
  <path fill-rule="evenodd" clip-rule="evenodd" d="M109.914 28.53c-.557 2.69-1.578 7.618.967 9.002 1.101.598-1.584 1.716-2.329 1.313-3.139-1.704-2.152-6.684-1.528-9.836.067-.336.129-.65.182-.939.065-.355.167-.728.269-1.105.158-.58.319-1.172.356-1.727.418-.503.293-.49-.381.04l-.459.339c-.315.242-.621.494-.92.755-1.098.974-2.191 2.002-3.08 3.177-.113.151-.35.283-.633.387.082 2.442.269 4.896.496 7.364.071.776-2.849 1.317-2.898.777l-.002-.016c-.503-5.526-1.038-11.398-.246-17.004-.266.09-.534.178-.81.263-1.678.517-1.895-.378-.237-.89.416-.128.82-.28 1.219-.44a29.2 29.2 0 0 1 1.094-4.378l.164-.487c1.205-3.582 2.643-7.86 6.455-9.201 4.402-1.549 3.756 3.818 2.461 6.422-1.782 3.574-4.094 5.819-7.182 7.395-.383 2.479-.541 4.972-.553 7.478 2.054-2.171 4.892-4.442 7.277-3.858 1.612.395 1.166 1.904.767 3.256-.109.366-.214.722-.273 1.04-.047.25-.108.545-.176.873Zm-4.649-17.23c-.31.701-.624 1.408-.87 2.131a36.625 36.625 0 0 0-1.246 4.724c1.793-1.347 3.217-3.112 4.047-5.297.073-.193.159-.405.251-.631.552-1.36 1.312-3.232.687-4.436-.799-1.54-1.859 1.074-2.429 2.483-.083.204-.156.384-.216.521l-.224.506Z" fill="#fff"/>
  <path fill-rule="evenodd" clip-rule="evenodd" d="M153.135 48.58c-1.127-2.886-3.588-3.994-6.293-4.128a12.056 12.056 0 0 0-1.133-2.076c-3.91-5.788-13.189-5.019-19.475-1.948l-.059-1.24v-.001c-.024-.498-.049-.994-.07-1.489 2.533.127 5-.852 6.502-2.997 1.676-2.395 1.434-6.632.777-9.314-.619-2.525-3.088-2.072-4.93-1.234-.656.298-1.279.744-1.865 1.261l.02-.244c.048-.591.097-1.182.14-1.77.111-1.542-2.842-1.153-2.941.203-.304 4.15-.334 8.29-.364 12.426a389.39 389.39 0 0 1-.077 6.114c-4.271 3.862-5.348 7.501-5.391 12.06-.02 2.271 1.934 3.961 3.982 2.386 2.895-2.224 3.771-6.629 4.172-9.984.178-1.491.197-3.009.16-4.528 4.49-2.941 10.635-3.149 15.205-.1.938.626 1.711 1.594 2.262 2.696-1.688.3-3.311.855-4.613 1.482-1.713.825-4.256 2.765-4.131 4.936.098 1.69 1.029 2.638 2.283 2.979.078.033.17.063.299.084 6.135.995 10.703-2.626 9.828-7.737 2.984 1.625 4.107 5.405 3.043 8.66-2.387 7.304-11.584 8.932-16.949 4.054-.574-.523-3.184.577-2.729.992 7.786 7.076 27.058.53 22.347-11.543Zm-35.803-25.916c3.928.357 4.309 4.575 4.303 7.863-.004 3.679-1.328 7.325-5.509 7.393-3.748.063-4.512-4.047-4.508-7.197-.215-.113-.354-.295-.35-.569.058-3.367 1.755-7.882 6.064-7.49Zm-2.748 6.098c-.166 2.037-.388 6.269 2.053 7.24 1.98.788 2.138-4.292 2.085-5.436l-.014-.335c-.071-1.717-.181-4.366-1.507-5.5-1.781-1.524-2.562 1.489-2.863 3.506a.544.544 0 0 1 .246.525Zm7.462 23.186c.686-1.594 1.043-3.405 1.145-5.143.031-.541.053-1.082.074-1.623l.01-.245c-1.537 2.315-2.321 5.034-2.346 7.892.056.781.316.717.316.717.288-.522.556-1.055.801-1.598Zm4.274-23.001a.766.766 0 0 0 .146-.172c.516-.917 1.207-1.728 1.908-2.507.527-.586 1.119-1.138 1.803-1.539.324.162.654.991.777 2.131.303 2.772.439 10.096-3.945 9.407-.209-.033-.57.043-.947.171v-.039c-.06-2.478.075-4.967.258-7.452Zm13.05 23.742c.011 0 .021 0 .03.002 5.069.822 6.057-3.481 4.773-7.048-2.541.076-5.625 1.435-6.117 3.959-.213 1.096-.4 2.688 1.289 3.086l.025.001Z" fill="#fff"/>
</svg>