<svg xmlns="http://www.w3.org/2000/svg" width="49" height="49">
  <g fill="#323232">
    <path d="M24.5 0a24.5 24.5 0 100 49 24.5 24.5 0 000-49zm0 47a22.5 22.5 0 110-45 22.5 22.5 0 010 45z"/>
    <path d="M29 13.1a5 5 0 00-10.1 0v14.7a7 7 0 00-2 4.9 7.1 7.1 0 0014.2 0 7.1 7.1 0 00-2.2-5.1V13zm.1 19.6a5.1 5.1 0 01-10.2 0c0-1.7.8-3.1 2-4V13a3 3 0 116 0v15.4a5.1 5.1 0 012.2 4.2z"/>
    <path d="M25 29.6V13.2a1 1 0 10-2 0v16.4a3 3 0 00-2 2.8 3 3 0 106 0 3 3 0 00-2-2.8zM31 12h6v2h-6zm0 4h6v2h-6zm0 4h6v2h-6zm0 4h6v2h-6z"/>
  </g>
</svg>
