<svg xmlns="http://www.w3.org/2000/svg" viewBox="0 0 49 49" width="49" height="49" fill="#323232">
  <path d="M24.5 0a24.5 24.5 0 1 0 0 49 24.5 24.5 0 0 0 0-49zm0 47a22.5 22.5 0 1 1 0-45 22.5 22.5 0 0 1 0 45z"/>
  <path d="M29 13.1a5 5 0 0 0-10.1 0v14.7a7 7 0 0 0-2 4.9 7.1 7.1 0 0 0 14.2 0 7.1 7.1 0 0 0-2.2-5.1V13zm.1 19.6a5.1 5.1 0 0 1-10.2 0 5 5 0 0 1 2-4V13a3 3 0 1 1 6 0v15.4a5.1 5.1 0 0 1 2.2 4.2z"/>
  <path d="M25 29.6V13.2a1 1 0 1 0-2 0v16.4a3 3 0 0 0-2 2.8 3 3 0 1 0 6 0 3 3 0 0 0-2-2.8zM31 12h6v2h-6zm0 4h6v2h-6zm0 4h6v2h-6zm0 4h6v2h-6z"/>
</svg>