<svg fill="none" xmlns="http://www.w3.org/2000/svg" viewBox="0 0 32 32" width="32" height="32">
  <path fill-rule="evenodd" clip-rule="evenodd" d="M0 16a16 16 0 1 1 32 0 16 16 0 0 1-32 0Zm13 7.5c7.5.1 10.7-4.2 11-10.7a3 3 0 0 0 1.7-2s-.7.7-1.5.5c.4-.2 1-.8 1-1.7l-1.3.4-1 .3c-.6-.9-2-1.6-3.8-1.1-2 .6-3 2-3.2 4.3-3.7-.2-5.8-1.9-7.8-3.7-1.2 1.6.2 4.6 1 4.8-.3 0-1.2-.1-1.5-.4 0 2 1.1 2.7 2.4 3.4l.3.2H9l-.1-.1c.3 2.1 1.8 2.5 2.9 2.8h.3c-.8.8-2.6 1.4-5 1.2.7 1.4 4.8 1.8 5.3 1.8h.5Z" fill="#fff" opacity=".8"/>
</svg>