<svg width="32" height="32" viewBox="0 0 32 32" fill="none" xmlns="http://www.w3.org/2000/svg">
<g opacity="0.8">
<path fill-rule="evenodd" clip-rule="evenodd" d="M17.5881 14.307C17.3561 14.413 17.0391 14.476 16.6371 14.495C16.2351 14.514 15.7491 14.523 15.1781 14.523H14.6131V11.558H14.9521C15.5028 11.5567 16.0535 11.5613 16.6041 11.572C16.9961 11.582 17.3241 11.637 17.5881 11.737C17.8831 11.849 18.0891 12.022 18.2051 12.254C18.3211 12.486 18.3791 12.719 18.3791 12.951C18.3791 13.252 18.3301 13.519 18.2291 13.748C18.1281 13.977 17.9141 14.162 17.5881 14.307ZM16.9521 16.952C17.4461 16.959 17.8361 17.003 18.1181 17.084C18.5311 17.204 18.8251 17.386 18.9951 17.627C19.1681 17.869 19.2561 18.211 19.2561 18.657C19.2561 18.995 19.1831 19.296 19.0421 19.557C18.9011 19.818 18.6451 20.025 18.2681 20.182C17.8838 20.3416 17.4721 20.4249 17.0561 20.427C16.6161 20.433 15.8901 20.436 14.8761 20.436H14.6121V16.943H15.4021C15.9187 16.9428 16.4354 16.9458 16.9521 16.952Z" fill="white"/>
<path fill-rule="evenodd" clip-rule="evenodd" d="M0 16C0 7.164 7.164 0 16 0C24.837 0 32 7.164 32 16C32 24.837 24.837 32 16 32C7.164 32 0 24.837 0 16ZM21.478 21.858C21.952 21.5104 22.3371 21.0557 22.602 20.531C22.875 19.997 23.013 19.392 23.013 18.714C23.013 17.778 22.743 17.024 22.206 16.453C21.669 15.882 20.944 15.505 20.027 15.323V15.248C20.681 14.96 21.186 14.558 21.544 14.04C21.901 13.523 22.08 12.923 22.08 12.245C22.08 11.662 21.948 11.142 21.688 10.687C21.428 10.232 21.032 9.87 20.499 9.6C20.0089 9.35068 19.4818 9.18186 18.938 9.1C18.415 9.025 17.588 8.987 16.458 8.987H11.015V23.008H17.136C18.154 23.008 18.993 22.92 19.655 22.744C20.317 22.568 20.926 22.273 21.478 21.858Z" fill="white"/>
</g>
</svg>
