<svg xmlns="http://www.w3.org/2000/svg" viewBox="0 0 32 32" width="32" height="32" opacity=".8" fill-rule="evenodd" clip-rule="evenodd" fill="#fff">
  <path d="m17.6 14.3-1 .2h-2v-3h.4a75.8 75.8 0 0 1 2.6.2c.3.1.5.3.6.6l.2.7c0 .3 0 .5-.2.7 0 .3-.3.5-.6.6ZM17 17H18l.9.6c.2.3.3.6.3 1s-.1.7-.3 1l-.7.6-1.2.2h-2.5V17H17Z"/>
  <path d="M0 16a16 16 0 1 1 32 0 16 16 0 0 1-32 0Zm21.5 5.9a3.7 3.7 0 0 0 1.5-3.2c0-1-.3-1.7-.8-2.2a4 4 0 0 0-2.2-1.2c.7-.3 1.2-.7 1.5-1.3a3 3 0 0 0 .6-1.8 3 3 0 0 0-.4-1.5c-.3-.5-.7-.8-1.2-1.1l-1.6-.5-2.4-.1H11v14h6.1c1 0 1.9 0 2.6-.3.6-.1 1.2-.4 1.8-.8Z"/>
</svg>
